<?xml version="1.0" encoding="UTF-8"?>
<svg id="Calque_1" xmlns="http://www.w3.org/2000/svg" version="1.1" viewBox="0 0 24 24">
  <!-- Generator: Adobe Illustrator 29.7.0, SVG Export Plug-In . SVG Version: 2.1.1 Build 138)  -->
  <defs>
    <style>
      .st0 {
        fill: #454444;
      }
    </style>
  </defs>
  <path class="st0" d="M10,16.5c-.29,0-.58-.13-.78-.38l-2-2.5c-.29-.37-.29-.88,0-1.25l2-2.5c.34-.43.98-.5,1.41-.16.43.34.5.97.16,1.41l-1.5,1.88,1.5,1.88c.35.43.28,1.06-.16,1.41-.18.15-.4.22-.62.22h-.01Z"/>
  <path class="st0" d="M14,16.5c-.22,0-.44-.07-.62-.22-.43-.35-.5-.97-.16-1.41l1.5-1.88-1.5-1.88c-.34-.43-.27-1.06.16-1.41s1.06-.27,1.41.16l2,2.5c.29.37.29.88,0,1.25l-2,2.5c-.2.25-.49.38-.78.38h-.01Z"/>
  <path class="st0" d="M20,21H4c-1.65,0-3-1.35-3-3V5c0-1.65,1.35-3,3-3h3.93c1.01,0,1.95.5,2.5,1.35l.8,1.19c.19.29.48.43.85.46h7.91c1.65,0,3,1.35,3,3v10c0,1.65-1.35,3-3,3h0ZM4,4c-.55,0-1,.45-1,1v13c0,.55.45,1,1,1h16c.55,0,1-.45,1-1v-10c0-.55-.45-1-1-1h-7.9c-1,0-1.96-.5-2.53-1.35l-.8-1.19c-.19-.29-.5-.46-.84-.46h-3.93Z"/>
</svg>